<svg width="215" height="190" viewBox="0 0 215 190" fill="none" xmlns="http://www.w3.org/2000/svg">
<path d="M165.808 0.886654C171.799 2.77548 177.713 4.66399 183.284 7.81725C188.925 11.0102 194.026 14.8489 198.301 19.4588C202.685 24.1871 206.396 29.5359 209.043 35.6706C211.259 40.8044 212.983 45.9312 213.903 51.3943C214.179 53.0365 214.673 54.6426 214.911 56.6135C214.548 60.8425 214.34 64.7232 214.131 68.6039C214.259 73.6612 213.322 78.5781 211.5 83.2393C209.434 88.5236 207.212 93.785 204.552 98.7904C202.213 103.193 199.488 107.478 196.364 111.362C192.838 115.745 188.737 119.682 184.77 123.699C181.861 126.645 178.542 129.214 175.826 132.316C173.928 134.482 172.337 137.089 172.442 140.266C172.496 141.932 172.342 143.609 172.474 145.266C172.717 148.298 171.622 150.638 169.503 152.821C167.088 155.311 165.018 158.132 162.797 160.808C162.645 160.992 162.506 161.195 162.324 161.343C157.051 165.648 151.957 170.2 146.439 174.17C141.752 177.542 136.784 180.686 131.558 183.117C126.167 185.625 120.358 187.296 114.641 189.036C112.232 189.769 109.594 189.857 107.047 189.995C106.06 190.049 104.911 189.629 104.049 189.088C100.919 187.12 100.927 184.121 103.638 181.544C106.599 178.729 109.273 175.618 112.14 172.701C114.164 170.641 116.344 168.734 118.374 166.68C120.917 164.108 123.338 161.415 125.885 158.846C129.818 154.879 133.868 151.026 137.765 147.025C141.103 143.597 144.255 139.99 147.568 136.537C150.286 133.704 153.123 130.984 155.902 128.208C157.246 126.864 158.594 125.523 159.908 124.151C162.942 120.981 166.044 117.87 168.95 114.587C171.198 112.048 173.239 109.32 175.286 106.612C177.602 103.549 180.189 100.611 181.994 97.2634C184.37 92.8554 187.54 88.8506 188.91 83.8893C190.034 79.8211 191.894 75.9273 192.74 71.816C194.343 64.0173 194.388 55.9629 191.37 48.6181C189.019 42.8956 186.375 36.95 180.97 32.9648C178.593 31.2117 176.659 28.8727 174.366 26.9915C173.213 26.0463 171.705 25.5303 170.135 24.594C168.199 23.8691 166.487 23.3705 164.774 22.8718C164.774 22.8718 164.762 22.8733 164.774 22.7033C164.789 22.3076 164.79 22.0819 164.947 21.8024C165.636 20.9901 166.462 20.2991 166.658 19.4622C167.716 14.9385 168.646 10.3842 169.561 5.82855C169.946 3.90883 169.229 2.66228 167.166 2.20679C166.641 2.09082 166.257 1.34375 165.808 0.886654Z" fill="#C62967"/>
<path d="M88.147 31.0098C85.5051 29.2208 82.8955 27.3816 80.2055 25.6675C79.1249 24.9789 77.8865 24.5188 76.6876 24.0341C71.0864 21.7694 65.1918 21.1063 59.2463 21.4898C55.731 21.7166 52.1914 22.4516 48.7948 23.4178C43.3193 24.9754 38.505 28.067 34.5796 32.0023C28.623 37.9739 24.1272 44.9871 22.5949 53.5226C22.4217 54.4877 22.0184 55.4119 21.5557 56.6987C21.4463 60.871 21.5031 64.6997 21.5598 68.5284C22.5541 72.5268 23.1168 76.6979 24.6466 80.4819C26.7977 85.8025 29.6393 90.8494 32.2477 95.9822C32.8983 97.2624 33.7866 98.4231 34.4936 99.9536C34.4919 101.192 34.3379 102.205 34.6684 103.025C36.9127 108.594 30.506 116.181 24.8969 116.562C22.4694 113.234 19.9605 110.147 17.8188 106.826C14.9052 102.308 12.0506 97.724 9.58629 92.9555C7.48748 88.8942 6.01536 84.5154 4.18346 80.3127C3.56405 78.8917 2.692 77.5798 1.93541 76.218C0.143731 68.7312 -0.624212 61.1717 0.586601 53.522C1.06386 50.5067 1.51577 47.4235 2.54502 44.5736C4.11188 40.2351 5.95206 35.9594 8.08827 31.8701C9.89986 28.4023 12.0049 24.9952 14.5145 22.0054C16.9666 19.0842 19.2857 15.8839 22.9035 14.0773C24.0065 13.5265 24.815 12.4193 25.8764 11.7531C29.6236 9.40092 33.2617 6.79773 37.2345 4.89707C45.3174 1.03016 54.052 -0.122229 62.9385 0.0100245C66.5303 0.0634791 70.2192 0.175042 73.6778 1.01687C78.6762 2.23346 83.6389 3.83106 88.3583 5.86114C91.3478 7.14712 93.8681 9.51388 96.5972 11.3984C97.3173 11.8956 98.031 12.4018 98.699 13.2419C98.6708 16.4866 98.8611 19.4042 98.6736 22.2975C98.3593 27.1458 95.0166 30.2264 90.1826 30.4916C89.4966 30.5292 88.8252 30.8305 88.147 31.0098Z" fill="#FE6A53"/>
<path d="M24.9791 116.7C30.506 116.181 36.9127 108.594 34.6684 103.025C34.3379 102.205 34.4919 101.192 34.5135 100.125C37.308 103.466 39.9486 107 42.728 110.424C46.6296 115.228 50.6857 119.921 56.1538 123.053C57.2327 123.671 58.7044 123.723 60.0104 123.812C63.4244 124.045 66.8755 123.935 70.2578 124.374C73.6287 124.811 76.6251 126.301 79.0897 128.776C80.8894 130.584 82.946 132.143 84.707 133.984C86.8201 136.194 88.7643 138.566 90.7395 140.903C93.8896 144.63 97.0393 148.359 100.124 152.14C102.535 155.095 104.899 158.093 107.175 161.152C107.942 162.183 108.433 163.599 106.918 164.428C105.377 165.27 103.754 164.982 102.489 163.72C97.9915 159.234 93.5374 154.704 89.0573 150.199C86.8817 148.012 84.7268 145.8 82.47 143.698C81.8727 143.142 80.9319 142.951 80.1489 142.592C79.8078 143.356 79.262 144.095 79.1621 144.889C78.7818 147.912 80.7422 149.849 82.8654 151.377C85.251 153.093 87.5907 154.675 89.437 157.097C91.6757 160.034 94.4858 162.536 97.0192 165.254C98.0885 166.401 99.2499 167.518 100.043 168.843C100.47 169.555 100.591 170.978 100.152 171.532C99.6791 172.128 98.2784 172.458 97.4818 172.226C96.3385 171.893 95.2351 171.089 94.3627 170.235C92.0549 167.976 89.9443 165.518 87.6312 163.265C85.9914 161.668 84.084 160.344 82.4205 158.769C81.2286 157.64 80.3264 156.21 79.1444 155.069C77.5387 153.519 75.8537 152.029 74.0564 150.71C73.6025 150.377 72.2612 150.521 71.9203 150.932C71.4549 151.494 71.2477 152.626 71.4864 153.325C71.8721 154.454 72.5486 155.588 73.3866 156.445C77.4228 160.571 81.5624 164.597 85.6487 168.675C88.0022 171.023 90.3213 173.406 92.6616 175.768C93.6893 176.805 93.774 179.155 92.8016 180.022C91.7654 180.945 89.6654 180.623 88.633 179.587C87.2958 178.244 85.776 177.083 84.3939 175.782C81.8178 173.357 79.3043 170.865 76.7276 168.441C74.2861 166.143 71.7874 163.906 69.3351 161.62C68.6177 160.951 67.9896 160.189 67.2904 159.499C66.3457 158.568 65.4034 157.229 63.9661 158.731C62.7882 159.963 62.1314 161.307 63.8415 162.751C64.9588 163.694 65.9207 164.817 66.9878 165.822C72.7202 171.219 78.4704 176.597 84.1915 182.006C84.6912 182.478 85.0142 183.133 85.4375 183.689C86.3479 184.885 86.7408 186.408 85.3826 187.154C84.516 187.629 82.7471 187.324 81.8262 186.71C77.68 183.946 73.6277 181.03 69.6705 178.002C67.0648 176.009 64.7295 173.669 62.181 171.597C59.1718 169.15 56.0546 166.834 53 164.442C49.4901 161.693 46.8241 158.301 44.7965 154.319C43.1116 151.009 42.312 147.587 42.7361 143.95C43.3528 138.661 41.3605 134.454 37.5991 130.946C35.794 129.262 33.7672 127.813 31.9754 126.117C30.401 124.626 29.0143 122.939 27.4524 121.014C26.5664 119.36 25.7728 118.03 24.9791 116.7Z" fill="#E6515D"/>
<path d="M107.835 91.9958C107.396 91.4853 106.957 90.9748 106.316 90.2293C105.109 96.3047 101.054 100.424 97.8668 105.108C94.9788 109.351 92.4496 114.09 94.4865 119.487C95.5289 122.249 97.3506 124.72 98.9429 127.54C98.9398 127.542 98.4694 128.115 98.2753 128.034C96.529 127.303 94.768 126.565 93.1355 125.618C91.1768 124.481 89.0722 123.401 87.5041 121.829C83.8745 118.19 81.268 114.122 80.3044 108.709C79.5673 104.57 80.3907 100.858 81.149 97.1156C81.6634 94.577 83.5517 92.2841 84.9646 89.9652C86.0923 88.1142 87.3323 86.3114 88.6993 84.6295C90.3263 82.6278 92.1151 80.7531 93.8814 78.8675C98.7029 73.7205 102.41 68.0682 102.565 60.7029C102.588 59.59 102.921 58.4835 103.118 57.3329C111.464 59.7256 118.806 74.152 119.929 89.7466C122.731 90.3503 124.103 87.0163 124.552 84.2546C124.8 82.7227 124.855 81.1597 125.104 79.6279C125.164 79.2563 125.621 78.7155 125.939 78.6839C126.257 78.6523 126.752 79.091 126.957 79.4453C128.976 82.9283 131.053 86.3849 132.892 89.9616C133.717 91.566 134.27 93.39 134.549 95.1759C135.412 100.708 135.796 106.387 134.019 111.702C132.927 114.97 130.584 117.93 128.386 120.701C125.49 124.35 121.238 126.163 116.97 127.78C116.553 127.938 115.986 127.703 114.646 127.562C118.698 124.364 120.332 120.744 120.205 116.455C120.098 112.825 118.728 109.601 116.322 106.293C115.21 108.764 113.98 110.86 110.73 109.847C110.232 109.513 109.986 109.332 109.739 109.151C109.739 109.151 109.665 109.148 109.652 108.937C108.089 105.958 108.02 103.079 108.683 100.022C109.27 97.3106 109.453 94.5294 107.835 91.9958Z" fill="#E6515D"/>
<path d="M88.2228 31.1536C88.8252 30.8305 89.4966 30.5292 90.1826 30.4916C95.0166 30.2264 98.3593 27.1458 98.6736 22.2975C98.8611 19.4042 98.6708 16.4866 98.7159 13.4172C101.607 15.9701 104.433 18.6857 107.659 21.7859C109.693 19.5974 111.595 17.3363 113.728 15.3173C115.754 13.3992 117.883 11.5193 120.22 10.012C123.231 8.07011 126.378 6.23653 129.682 4.87391C132.926 3.53592 136.553 3.12268 139.809 1.80687C144.664 -0.154618 149.723 0.280074 154.707 0.0409689C158.314 -0.132045 161.952 0.348808 165.692 0.71236C166.257 1.34375 166.641 2.09082 167.166 2.20679C169.229 2.66228 169.946 3.90883 169.561 5.82855C168.646 10.3842 167.716 14.9385 166.658 19.4622C166.462 20.2991 165.636 20.9901 164.793 21.7092C158.191 20.0941 151.965 19.4247 145.411 20.7598C140.065 21.8488 135.434 24.1637 130.838 26.7555C130.145 27.1463 129.875 28.2799 129.409 29.0699C129.409 29.0699 129.373 29.0547 129.229 29.0747C128.726 29.4027 128.366 29.7108 128.007 30.0188C128.007 30.0188 127.998 30.0606 127.845 30.0953C127.455 30.3832 127.216 30.6365 126.978 30.8898C122.418 34.0664 118.851 38.2487 115.571 42.6135C111.925 47.4645 104.577 46.9167 101.1 43.9551C98.9567 42.1291 97.5015 39.5256 95.4835 37.5246C93.2389 35.2987 90.706 33.3607 88.2228 31.1536Z" fill="#E64F5C"/>
<path d="M24.8969 116.562C25.7728 118.03 26.5664 119.36 27.3671 120.867C25.5308 119.113 23.4894 117.332 21.8855 115.221C18.6793 111.002 15.4502 106.759 12.7192 102.234C9.84007 97.4632 7.27693 92.4609 5.06248 87.351C3.59445 83.9636 2.98251 80.2087 1.96137 76.4181C2.69201 77.5798 3.56405 78.8917 4.18346 80.3127C6.01536 84.5154 7.48748 88.8942 9.58629 92.9555C12.0506 97.724 14.9052 102.308 17.8188 106.826C19.9605 110.147 22.4694 113.234 24.8969 116.562Z" fill="#EA6268"/>
<path d="M129.561 29.0048C129.875 28.2799 130.145 27.1463 130.838 26.7555C135.434 24.1637 140.065 21.8488 145.411 20.7598C151.965 19.4247 158.191 20.0941 164.639 21.7631C164.79 22.0819 164.789 22.3076 164.768 22.7013C160.316 22.3792 155.876 21.4422 151.449 21.4987C143.903 21.5949 136.862 23.7736 130.724 28.3672C130.416 28.5971 130.051 28.7506 129.561 29.0048Z" fill="#CE3C6C"/>
<path d="M107.833 92.1991C109.453 94.5294 109.27 97.3106 108.683 100.022C108.02 103.079 108.089 105.958 109.653 108.9C107.498 107.329 107.261 105.068 107.511 102.45C107.829 99.1208 107.743 95.7534 107.833 92.1991Z" fill="#EE8E95"/>
<path d="M214.307 68.6515C214.34 64.7232 214.548 60.8425 214.874 56.7982C214.996 60.6459 215.002 64.6571 215 68.6684C215 68.7265 214.891 68.8389 214.848 68.8324C214.722 68.8137 214.604 68.747 214.307 68.6515Z" fill="#FF8080"/>
<path d="M21.592 68.3111C21.5031 64.6997 21.4463 60.871 21.4763 56.8701C21.5834 60.4965 21.6038 64.2951 21.592 68.3111Z" fill="#FA8E7E"/>
<path d="M164.861 23.0281C166.487 23.3705 168.199 23.8691 169.981 24.5154C168.349 24.1702 166.648 23.6773 164.861 23.0281Z" fill="#CE3C6C"/>
<path d="M128.161 30.0167C128.366 29.7108 128.726 29.4027 129.243 29.0878C129.039 29.3921 128.677 29.7034 128.161 30.0167Z" fill="#CE3C6C"/>
<path d="M127.118 30.8923C127.216 30.6365 127.455 30.3832 127.824 30.092C127.723 30.3344 127.49 30.6146 127.118 30.8923Z" fill="#CE3C6C"/>
<path d="M109.783 109.258C109.986 109.332 110.232 109.513 110.518 109.809C110.313 109.738 110.07 109.551 109.783 109.258Z" fill="#EE8E95"/>
</svg>
